<?xml version="1.0"?>
<svg xmlns="http://www.w3.org/2000/svg" xmlns:xlink="http://www.w3.org/1999/xlink" xmlns:svgjs="http://svgjs.com/svgjs" version="1.1" width="512" height="512" x="0" y="0" viewBox="0 0 479.99583 479.99583" style="enable-background:new 0 0 512 512" xml:space="preserve" class=""><g><path xmlns="http://www.w3.org/2000/svg" d="m227.574219 184.839844 14.3125 7.15625h30.109375c0-13.253906-10.742188-24-24-24h-16c-13.253906 0-24 10.746094-24 24h4.691406l5.65625-5.652344c2.429688-2.4375 6.148438-3.042969 9.230469-1.503906zm0 0" fill="#4c51bf" data-original="#000000" style="" class=""/><path xmlns="http://www.w3.org/2000/svg" d="m251.828125 271.996094h-23.664063l11.832032 27.65625zm0 0" fill="#4c51bf" data-original="#000000" style="" class=""/><path xmlns="http://www.w3.org/2000/svg" d="m183.996094 311.996094v15.496094c34.09375 22.007812 77.910156 22.007812 112 0v-15.496094c.054687-17.324219-11.136719-32.6875-27.644532-37.949219l-21 49.101563c-1.261718 2.941406-4.15625 4.847656-7.355468 4.847656-3.199219 0-6.089844-1.90625-7.351563-4.847656l-21.007812-49.101563c-16.503907 5.269531-27.6875 20.625-27.640625 37.949219zm0 0" fill="#4c51bf" data-original="#000000" style="" class=""/><path xmlns="http://www.w3.org/2000/svg" d="m236.421875 207.199219-10.824219-5.464844-3.917968 3.917969c-1.507813 1.507812-3.550782 2.351562-5.683594 2.34375v8c0 13.257812 10.746094 24 24 24 13.257812 0 24-10.742188 24-24v-8h-24c-1.234375.015625-2.460938-.257813-3.574219-.796875zm0 0" fill="#4c51bf" data-original="#000000" style="" class=""/><path xmlns="http://www.w3.org/2000/svg" d="m343.996094 239.996094c.082031-47.359375-31.847656-88.789063-77.664063-100.78125-45.816406-11.996094-93.949219 8.480468-117.082031 49.804687-23.132812 41.328125-15.425781 93.0625 18.746094 125.851563v-2.875c.089844-30.890625 25.109375-55.910156 56-56h16c-22.078125-.023438-39.972656-17.917969-40-40v-8c-4.417969 0-8-3.578125-8-8v-8c.027344-22.078125 17.921875-39.972656 40-40h16c22.082031.027344 39.976562 17.921875 40 40v8c0 4.421875-3.578125 8-8 8v8c-.023438 22.082031-17.917969 39.976562-40 40h16c30.894531.089844 55.914062 25.109375 56 56v2.875c20.4375-19.546875 31.996094-46.59375 32-74.875zm0 0" fill="#4c51bf" data-original="#000000" style="" class=""/><path xmlns="http://www.w3.org/2000/svg" d="m453.597656 208.566406c-5.132812-35.292968-19.011718-68.738281-40.375-97.296875 8.988282-12.683593 7.503906-30.007812-3.511718-40.976562-11.148438-10.601563-28.160157-12.046875-40.9375-3.480469-28.566407-21.382812-62.03125-35.277344-97.34375-40.414062-2.675782-15.265626-15.933594-26.398438-31.433594-26.398438-15.496094 0-28.753906 11.132812-31.429688 26.398438-35.320312 5.132812-68.792968 19.027343-97.367187 40.414062-12.777344-8.566406-29.789063-7.121094-40.9375 3.480469-11.019531 10.972656-12.503907 28.296875-3.511719 40.984375-21.355469 28.554687-35.226562 62-40.351562 97.289062-15.265626 2.675782-26.398438 15.933594-26.398438 31.429688 0 15.5 11.132812 28.757812 26.398438 31.433594 5.132812 35.289062 19.015624 68.734374 40.382812 97.289062-8.976562 12.691406-7.503906 30.007812 3.488281 41 10.992188 10.996094 28.304688 12.46875 41 3.496094 28.558594 21.363281 62.003907 35.246094 97.296875 40.382812 2.675782 15.265625 15.933594 26.398438 31.429688 26.398438 15.5 0 28.757812-11.132813 31.433594-26.398438 35.292968-5.132812 68.738281-19.011718 97.296874-40.375 12.691407 8.992188 30.015626 7.523438 41.015626-3.472656 10.996093-11 12.464843-28.324219 3.472656-41.015625 21.367187-28.558594 35.25-62.007813 40.382812-97.304687 15.265625-2.675782 26.398438-15.933594 26.398438-31.433594 0-15.496094-11.132813-28.753906-26.398438-31.429688zm-52.710937 149.925782c-12.214844-5.683594-26.664063-3.320313-36.433594 5.960937-9.6875 9.589844-12.140625 24.308594-6.078125 36.519531-25.984375 19.234375-56.28125 31.8125-88.25 36.625-4.363281-12.921875-16.484375-21.625-30.128906-21.625-13.640625 0-25.761719 8.703125-30.125 21.625-31.976563-4.8125-62.28125-17.386718-88.273438-36.625 6.074219-12.207031 3.625-26.933594-6.070312-36.519531-9.769532-9.285156-24.222656-11.648437-36.441406-5.960937-19.273438-26.011719-31.871094-56.351563-36.6875-88.367188 12.921874-4.363281 21.625-16.484375 21.625-30.128906 0-13.640625-8.703126-25.761719-21.625-30.125 4.808593-31.976563 17.386718-62.285156 36.625-88.273438 12.214843 6.039063 26.917968 3.617188 36.554687-6.019531s12.058594-24.339844 6.019531-36.554687c25.992188-19.238282 56.296875-31.8125 88.273438-36.625 4.363281 12.921874 16.484375 21.625 30.125 21.625 13.644531 0 25.765625-8.703126 30.128906-21.625 31.976562 4.808593 62.285156 17.386718 88.273438 36.625-6.015626 12.214843-3.585938 26.902343 6.042968 36.53125 9.628906 9.628906 24.316406 12.058593 36.53125 6.042968 19.238282 25.988282 31.816406 56.296875 36.625 88.273438-12.921875 4.363281-21.625 16.484375-21.625 30.125 0 13.644531 8.703125 25.765625 21.625 30.128906-4.820312 32.015625-17.429687 62.359375-36.710937 88.367188zm0 0" fill="#4c51bf" data-original="#000000" style="" class=""/></g></svg>
