<?xml version="1.0" standalone="no"?>
<!DOCTYPE svg PUBLIC "-//W3C//DTD SVG 20010904//EN"
 "http://www.w3.org/TR/2001/REC-SVG-20010904/DTD/svg10.dtd">
<svg version="1.0" xmlns="http://www.w3.org/2000/svg"
 width="64.000000pt" height="64.000000pt" viewBox="0 0 64.000000 64.000000"
 preserveAspectRatio="xMidYMid meet">
<metadata>
Created by potrace 1.16, written by Peter Selinger 2001-2019
</metadata>
<g transform="translate(0.000000,64.000000) scale(0.100000,-0.100000)"
fill="#000000" stroke="none">
<path d="M63 460 c-49 -29 -66 -71 -61 -151 3 -55 8 -73 28 -95 68 -73 166
-71 253 6 l37 32 37 -32 c89 -78 183 -80 253 -5 21 22 25 38 28 98 3 63 1 77
-20 107 -30 44 -61 60 -120 60 -61 0 -88 -11 -137 -56 l-41 -36 -41 36 c-22
20 -51 41 -65 46 -42 17 -116 12 -151 -10z m155 -102 c23 -18 42 -36 42 -40 0
-13 -92 -68 -112 -68 -25 0 -68 44 -68 68 0 11 9 31 21 46 28 36 65 34 117 -6z
m308 24 c15 -10 34 -47 34 -67 0 -22 -45 -65 -68 -65 -10 0 -40 14 -67 32
l-48 32 41 38 c40 37 81 49 108 30z"/>
</g>
</svg>
