<?xml version="1.0" standalone="no"?>
<!DOCTYPE svg PUBLIC "-//W3C//DTD SVG 20010904//EN"
 "http://www.w3.org/TR/2001/REC-SVG-20010904/DTD/svg10.dtd">
<svg version="1.0" xmlns="http://www.w3.org/2000/svg"
 width="64.000000pt" height="64.000000pt" viewBox="0 0 64.000000 64.000000"
 preserveAspectRatio="xMidYMid meet">

<g transform="translate(0.000000,64.000000) scale(0.100000,-0.100000)"
fill="#4C51BF" stroke="none">
<path d="M448 513 c6 -2 18 -2 25 0 6 3 1 5 -13 5 -14 0 -19 -2 -12 -5z"/>
<path d="M362 478 c-39 -30 -52 -48 -34 -48 10 1 84 71 80 76 -3 2 -23 -11
-46 -28z"/>
<path d="M83 465 c-36 -16 -70 -63 -79 -112 -11 -56 5 -104 46 -145 34 -34 43
-38 88 -38 65 0 91 11 141 56 l41 36 45 -40 c78 -68 170 -75 229 -15 59 58 60
171 2 229 -62 62 -153 55 -232 -18 l-45 -41 -37 36 c-64 62 -134 81 -199 52z
m142 -104 c21 -16 41 -33 42 -38 2 -6 -15 -25 -39 -42 -75 -55 -148 -36 -148
40 0 29 6 42 27 59 33 26 61 21 118 -19z m298 28 c30 -16 37 -28 37 -68 0 -76
-73 -95 -149 -40 l-42 32 23 25 c27 29 78 62 96 62 7 0 23 -5 35 -11z"/>
<path d="M276 166 c3 -9 11 -16 16 -16 13 0 5 23 -10 28 -7 2 -10 -2 -6 -12z"/>
<path d="M60 135 c0 -8 2 -15 4 -15 2 0 6 7 10 15 3 8 1 15 -4 15 -6 0 -10 -7
-10 -15z"/>
<path d="M230 136 c0 -9 5 -16 10 -16 6 0 10 4 10 9 0 6 -4 13 -10 16 -5 3
-10 -1 -10 -9z"/>
<path d="M121 124 c0 -11 3 -14 6 -6 3 7 2 16 -1 19 -3 4 -6 -2 -5 -13z"/>
<path d="M170 125 c0 -8 5 -15 10 -15 6 0 10 7 10 15 0 8 -4 15 -10 15 -5 0
-10 -7 -10 -15z"/>
</g>
</svg>
