<?xml version="1.0"?>
<svg xmlns="http://www.w3.org/2000/svg" xmlns:xlink="http://www.w3.org/1999/xlink" xmlns:svgjs="http://svgjs.com/svgjs" version="1.1" width="512" height="512" x="0" y="0" viewBox="0 0 512 512" style="enable-background:new 0 0 512 512" xml:space="preserve" class=""><g><g xmlns="http://www.w3.org/2000/svg"><path d="m81.372 350.49c-75.12 131.477-79.63 130.645-69.546 147.998 10.063 17.335 13.396 13.029 150.556 13.029 28.027 0 32.457-18.109 69.235-82.475-59.817-6.188-112.904-35.384-150.245-78.552z" fill="#4c51bf" data-original="#000000" style="" class=""/><path d="m322.026 175.801c-58.47 0-47.439 8.024-65.524-47.611-18.086 55.636-7.022 47.611-65.524 47.611 47.313 34.375 43.106 21.403 25.024 77.029 47.504-34.515 33.398-34.586 81 0-18.077-55.609-22.337-42.618 25.024-77.029z" fill="#4c51bf" data-original="#000000" style="" class=""/><path d="m448.27 253.813c35.582-131.082-63.484-253.813-192.771-253.813-137.801 0-236.015 137.573-187.928 268.817 63.891 178.167 327.19 175.364 380.699-15.004zm-191.769 6.79c-62.431 45.361-66.221 52.316-77.961 43.79-11.792-8.564-6.229-14.472 17.562-87.68-62.253-45.224-70.234-46.739-65.745-60.609 4.505-13.85 11.836-10.391 88.813-10.391 23.782-73.21 22.754-81.251 37.331-81.251 14.566 0 13.538 8.007 37.331 81.251 76.979 0 84.309-3.458 88.813 10.391 4.486 13.862-3.466 15.367-65.745 60.609 23.878 73.474 29.292 79.161 17.562 87.68-11.8 8.569-15.75 1.411-77.961-43.79z" fill="#4c51bf" data-original="#000000" style="" class=""/><path d="m430.217 349.788c-37.17 43.329-90.147 72.725-149.905 79.155l36.218 63.378c6.77 11.845 19.448 19.197 33.088 19.197 137.004 0 140.471 4.344 150.556-13.029 10.097-17.376 5.575-16.52-69.957-148.701z" fill="#4c51bf" data-original="#000000" style="" class=""/></g></g></svg>
